<svg width="18" height="12" viewBox="0 0 18 12" fill="none" xmlns="http://www.w3.org/2000/svg">
<path d="M13.1365 12C12.0669 12 11.298 11.728 10.8301 11.184C10.3287 10.672 10.078 10 10.078 9.168V8.496C10.078 7.184 10.4791 5.728 11.2813 4.128C12.0836 2.56 13.2033 1.184 14.6407 8.43454e-07L18 1.12461e-06C16.9972 1.024 16.195 1.984 15.5933 2.88C14.9582 3.808 14.507 4.832 14.2396 5.952C14.9081 6.112 15.4095 6.416 15.7437 6.864C16.0446 7.312 16.195 7.856 16.195 8.496V9.168C16.195 10 15.961 10.672 15.493 11.184C14.9916 11.728 14.2061 12 13.1365 12ZM3.0585 12C1.98886 12 1.22006 11.728 0.75209 11.184C0.250697 10.672 -7.59773e-08 10 0 9.168L6.13658e-08 8.496C1.81176e-07 7.184 0.401115 5.728 1.20334 4.128C2.00557 2.56 3.12535 1.184 4.56268 0L7.92201 2.81152e-07C6.91922 1.024 6.11699 1.984 5.51532 2.88C4.88022 3.808 4.42897 4.832 4.16156 5.952C4.83008 6.112 5.33148 6.416 5.66574 6.864C5.96657 7.312 6.11699 7.856 6.11699 8.496L6.11699 9.168C6.11699 10 5.88301 10.672 5.41504 11.184C4.91365 11.728 4.12813 12 3.0585 12Z" fill="#AAB0C1"/>
</svg>
