<svg width="16" height="14" viewBox="0 0 16 14" fill="none" xmlns="http://www.w3.org/2000/svg">
<path d="M0.865962 6.88744V5.51558C1.89429 5.95176 3.00832 6.27772 4.20803 6.49347C5.40775 6.70452 6.67061 6.81005 7.99662 6.81005C9.32713 6.81005 10.5922 6.70452 11.792 6.49347C12.9917 6.27772 14.1057 5.9541 15.134 5.52261L15.1408 6.88744C14.0719 7.28141 12.9353 7.57688 11.7311 7.77387C10.5314 7.97085 9.28654 8.06935 7.99662 8.06935C6.71121 8.06935 5.46638 7.97085 4.26216 7.77387C3.06244 7.57688 1.93037 7.28141 0.865962 6.88744ZM6.94123 9.37789C6.39549 9.37789 6.12262 9.10352 6.12262 8.55477V7.34472H9.87061V8.55477C9.87061 9.10352 9.59774 9.37789 9.05201 9.37789H6.94123ZM2.1852 14C1.46808 14 0.924595 13.8101 0.554757 13.4302C0.184919 13.0549 0 12.4945 0 11.7487V4.86131C0 4.11089 0.184919 3.54807 0.554757 3.17286C0.924595 2.79765 1.46808 2.61005 2.1852 2.61005H13.8148C14.5364 2.61005 15.0799 2.79765 15.4452 3.17286C15.8151 3.54807 16 4.11089 16 4.86131V11.7487C16 12.4945 15.8151 13.0549 15.4452 13.4302C15.0799 13.8101 14.5364 14 13.8148 14H2.1852ZM2.23932 12.6704H13.7607C14.0538 12.6704 14.2771 12.5883 14.4304 12.4241C14.5883 12.2647 14.6672 12.0255 14.6672 11.7065V4.90352C14.6672 4.5799 14.5883 4.33836 14.4304 4.17889C14.2771 4.01943 14.0538 3.9397 13.7607 3.9397H2.23932C1.94616 3.9397 1.72065 4.01943 1.56279 4.17889C1.40944 4.33836 1.33277 4.5799 1.33277 4.90352V11.7065C1.33277 12.0255 1.40944 12.2647 1.56279 12.4241C1.72065 12.5883 1.94616 12.6704 2.23932 12.6704ZM4.45159 3.1799V1.96281C4.45159 1.30151 4.62748 0.809045 4.97928 0.485427C5.33108 0.161809 5.80916 0 6.41353 0H9.57294C10.2134 0 10.7005 0.161809 11.0342 0.485427C11.3725 0.809045 11.5416 1.30151 11.5416 1.96281V3.17286H10.3104V1.96985C10.3104 1.71658 10.2427 1.52194 10.1074 1.38593C9.9766 1.24992 9.78717 1.18191 9.53911 1.18191H6.46089C6.21283 1.18191 6.02114 1.24992 5.88584 1.38593C5.75053 1.52194 5.68288 1.71658 5.68288 1.96985V3.1799H4.45159Z" fill="#333333"/>
</svg>
