<svg width="39" height="39" viewBox="0 0 39 39" fill="none" xmlns="http://www.w3.org/2000/svg">
<path d="M19.4908 39C16.8206 39 14.3105 38.4891 11.9602 37.4673C9.61003 36.4579 7.53668 35.0545 5.74018 33.2571C3.94368 31.4721 2.53478 29.4039 1.51349 27.0526C0.504496 24.7012 0 22.1837 0 19.5C0 16.8286 0.504496 14.3172 1.51349 11.9659C2.53478 9.61458 3.93753 7.54025 5.72172 5.7429C7.51822 3.94555 9.59158 2.54214 11.9418 1.53267C14.3043 0.51089 16.8206 0 19.4908 0C22.1609 0 24.6711 0.51089 27.0213 1.53267C29.3838 2.54214 31.4572 3.94555 33.2414 5.7429C35.0379 7.54025 36.4468 9.61458 37.4681 11.9659C38.4894 14.3172 39 16.8286 39 19.5C39 22.1837 38.4894 24.7012 37.4681 27.0526C36.4468 29.4039 35.0379 31.4721 33.2414 33.2571C31.4572 35.0545 29.39 36.4579 27.0398 37.4673C24.6895 38.4891 22.1732 39 19.4908 39ZM19.4908 34.1435C21.5211 34.1435 23.4221 33.7618 25.194 32.9986C26.9659 32.2476 28.5225 31.2074 29.8637 29.8778C31.2049 28.536 32.2508 26.9787 33.0014 25.206C33.7643 23.4332 34.1458 21.5312 34.1458 19.5C34.1458 17.4688 33.7643 15.5729 33.0014 13.8125C32.2385 12.0398 31.1865 10.4825 29.8452 9.14062C28.5163 7.79877 26.9659 6.75237 25.194 6.00142C23.4221 5.23816 21.5211 4.85653 19.4908 4.85653C17.4605 4.85653 15.5594 5.23816 13.7875 6.00142C12.0279 6.75237 10.4775 7.79877 9.1363 9.14062C7.79508 10.4825 6.74917 12.0398 5.99858 13.8125C5.24799 15.5729 4.87269 17.4688 4.87269 19.5C4.87269 21.5312 5.24799 23.4332 5.99858 25.206C6.74917 26.9787 7.79508 28.536 9.1363 29.8778C10.4775 31.2074 12.0341 32.2476 13.806 32.9986C15.5779 33.7618 17.4728 34.1435 19.4908 34.1435ZM12.5693 27.2188C11.6219 27.2188 10.902 26.9725 10.4098 26.4801C9.91765 25.9877 9.67156 25.2737 9.67156 24.3381V15.9915C9.67156 15.0559 9.91765 14.3419 10.4098 13.8494C10.902 13.357 11.6219 13.1108 12.5693 13.1108H26.4491C27.3966 13.1108 28.1164 13.357 28.6086 13.8494C29.1008 14.3419 29.3469 15.0559 29.3469 15.9915V24.3381C29.3469 25.2737 29.1008 25.9877 28.6086 26.4801C28.1164 26.9725 27.3966 27.2188 26.4491 27.2188H12.5693ZM18.1619 21.7898H20.8566C21.6072 21.7898 21.9825 21.4266 21.9825 20.7003V20.054C23.1637 19.9555 24.345 19.7893 25.5263 19.5554C26.7198 19.3092 27.9934 18.9399 29.3469 18.4474V16.5085C27.8088 17.161 26.2092 17.6411 24.548 17.9489C22.8869 18.2443 21.2073 18.392 19.5092 18.392C17.8112 18.392 16.1316 18.2443 14.4704 17.9489C12.8093 17.6411 11.2097 17.161 9.67156 16.5085V18.4474C11.0251 18.9399 12.2925 19.3092 13.4737 19.5554C14.6673 19.7893 15.8547 19.9555 17.036 20.054V20.7003C17.036 21.4266 17.4113 21.7898 18.1619 21.7898ZM14.1382 13.7386V12.1506C14.1382 11.4242 14.3597 10.858 14.8027 10.4517C15.2456 10.0455 15.867 9.84233 16.6668 9.84233H22.3516C23.1514 9.84233 23.7667 10.0455 24.1973 10.4517C24.6403 10.858 24.8618 11.4242 24.8618 12.1506V13.7386H22.7946V12.206C22.7946 11.8736 22.5977 11.7074 22.204 11.7074H16.8145C16.4207 11.7074 16.2239 11.8736 16.2239 12.206V13.7386H14.1382Z" fill="white"/>
</svg>
