<svg width="39" height="39" viewBox="0 0 39 39" fill="none" xmlns="http://www.w3.org/2000/svg">
<path d="M19.4908 39C16.8206 39 14.3105 38.4891 11.9602 37.4673C9.61003 36.4579 7.53668 35.0545 5.74018 33.2571C3.94368 31.4721 2.53478 29.4039 1.51349 27.0526C0.504496 24.7012 0 22.1837 0 19.5C0 16.8286 0.504496 14.3172 1.51349 11.9659C2.53478 9.61458 3.93753 7.54025 5.72172 5.7429C7.51822 3.94555 9.59158 2.54214 11.9418 1.53267C14.3043 0.51089 16.8206 0 19.4908 0C22.1609 0 24.6711 0.51089 27.0213 1.53267C29.3838 2.54214 31.4572 3.94555 33.2414 5.7429C35.0379 7.54025 36.4468 9.61458 37.4681 11.9659C38.4894 14.3172 39 16.8286 39 19.5C39 22.1837 38.4894 24.7012 37.4681 27.0526C36.4468 29.4039 35.0379 31.4721 33.2414 33.2571C31.4572 35.0545 29.39 36.4579 27.0398 37.4673C24.6895 38.4891 22.1732 39 19.4908 39ZM19.4908 34.1435C21.5211 34.1435 23.4221 33.7618 25.194 32.9986C26.9659 32.2476 28.5225 31.2074 29.8637 29.8778C31.2049 28.536 32.2508 26.9787 33.0014 25.206C33.7643 23.4332 34.1458 21.5312 34.1458 19.5C34.1458 17.4688 33.7643 15.5729 33.0014 13.8125C32.2385 12.0398 31.1865 10.4825 29.8452 9.14062C28.5163 7.79877 26.9659 6.75237 25.194 6.00142C23.4221 5.23816 21.5211 4.85653 19.4908 4.85653C17.4605 4.85653 15.5594 5.23816 13.7875 6.00142C12.0279 6.75237 10.4775 7.79877 9.1363 9.14062C7.79508 10.4825 6.74917 12.0398 5.99858 13.8125C5.24799 15.5729 4.87269 17.4688 4.87269 19.5C4.87269 21.5312 5.24799 23.4332 5.99858 25.206C6.74917 26.9787 7.79508 28.536 9.1363 29.8778C10.4775 31.2074 12.0341 32.2476 13.806 32.9986C15.5779 33.7618 17.4728 34.1435 19.4908 34.1435ZM12.1448 19.8878C11.8372 20.1463 11.5419 20.214 11.2589 20.0909C10.9882 19.9678 10.8159 19.7708 10.7421 19.5C10.6682 19.2169 10.7667 18.9645 11.0374 18.7429L18.3833 12.7969C18.7156 12.526 19.0786 12.3906 19.4723 12.3906C19.8784 12.3906 20.2598 12.526 20.6167 12.7969L27.9257 18.7429C28.2087 18.9645 28.3071 19.2169 28.221 19.5C28.1472 19.7708 27.9749 19.9678 27.7042 20.0909C27.4335 20.214 27.1443 20.1463 26.8367 19.8878L19.8599 14.2372C19.7369 14.151 19.6077 14.108 19.4723 14.108C19.3493 14.108 19.2324 14.151 19.1216 14.2372L12.1448 19.8878ZM13.7137 24.5966C13.2092 24.5966 12.8093 24.455 12.514 24.1719C12.2186 23.8887 12.071 23.4886 12.071 22.9716V20.9773C12.231 20.9403 12.3786 20.8788 12.514 20.7926C12.6616 20.7064 12.8216 20.6018 12.9938 20.4787L19.4723 15.2344L25.9877 20.4787C26.1477 20.6018 26.3015 20.7064 26.4491 20.7926C26.5968 20.8788 26.7444 20.9403 26.8921 20.9773V22.9716C26.8921 23.4886 26.7444 23.8887 26.4491 24.1719C26.1661 24.455 25.7662 24.5966 25.2494 24.5966H13.7137ZM17.7004 23.0085H21.2627V20.2756C21.2627 19.9432 21.1089 19.777 20.8012 19.777H18.1988C17.8665 19.777 17.7004 19.9432 17.7004 20.2756V23.0085ZM10.4283 17.9673C10.0345 18.2751 9.81306 18.6259 9.76384 19.0199C9.71462 19.4015 9.77615 19.7585 9.94841 20.0909H7.51207C7.09371 20.0909 6.83531 19.9186 6.73687 19.5739C6.65073 19.2169 6.75532 18.9276 7.05064 18.706L11.2773 15.733C11.3881 15.6345 11.5111 15.5668 11.6465 15.5298C11.7941 15.4806 11.9479 15.456 12.1079 15.456L13.4922 15.4744L10.4283 17.9673ZM11.0743 22.9716C11.0743 23.6117 11.2404 24.1534 11.5726 24.5966H9.57927C9.05017 24.5966 8.63796 24.455 8.34264 24.1719C8.05963 23.8887 7.91813 23.4886 7.91813 22.9716V21.0696H11.0743V22.9716ZM28.5532 17.9673L25.4894 15.4744L26.8736 15.456C27.0336 15.456 27.1813 15.4806 27.3166 15.5298C27.452 15.5668 27.5812 15.6345 27.7042 15.733L31.9309 18.706C32.2385 18.9399 32.3431 19.2292 32.2447 19.5739C32.1462 19.9186 31.8878 20.0909 31.4695 20.0909H29.0331C29.2054 19.7585 29.2669 19.4015 29.2177 19.0199C29.1685 18.6259 28.947 18.2751 28.5532 17.9673ZM27.9072 22.9716V21.0696H31.0634V22.9716C31.0634 23.4886 30.9158 23.8887 30.6204 24.1719C30.3374 24.455 29.9314 24.5966 29.4023 24.5966H27.4089C27.7411 24.1411 27.9072 23.5994 27.9072 22.9716Z" fill="white"/>
</svg>
