<svg width="100" height="40" viewBox="0 0 100 40" fill="none" xmlns="http://www.w3.org/2000/svg">
<g clip-path="url(#clip0_1213_14410)">
<path d="M47.9632 1.49372C49.1659 0.605014 50.8039 0.604952 52.0067 1.49357L65.9465 11.7926C66.5941 12.2711 66.9765 13.0307 66.9765 13.8385V18.6632C66.9765 19.4514 66.1311 19.9473 65.4481 19.5597L49.9868 10.7862L34.5217 19.5624C33.8386 19.9499 32.9932 19.4541 32.9932 18.6659V13.8403C32.9932 13.0326 33.3756 12.2731 34.0232 11.7945L47.9632 1.49372Z" fill="#00B57F"/>
<mask id="mask0_1213_14410" style="mask-type:alpha" maskUnits="userSpaceOnUse" x="32" y="0" width="35" height="20">
<path d="M47.9632 1.49372C49.1659 0.605014 50.8039 0.604952 52.0067 1.49357L65.9465 11.7926C66.5941 12.2711 66.9765 13.0307 66.9765 13.8385V18.6632C66.9765 19.4514 66.1311 19.9473 65.4481 19.5597L49.9868 10.7862L34.5217 19.5624C33.8386 19.9499 32.9932 19.4541 32.9932 18.6659V13.8403C32.9932 13.0326 33.3756 12.2731 34.0232 11.7945L47.9632 1.49372Z" fill="#00CB8E"/>
</mask>
<g mask="url(#mask0_1213_14410)">
<g filter="url(#filter0_f_1213_14410)">
<path d="M62.6302 6.80789L58.0168 -2.15332L44.5058 4.86873L49.1192 13.8299L62.6302 6.80789Z" fill="#009367"/>
</g>
</g>
<path d="M47.9632 1.49372C49.166 0.605012 50.8039 0.604953 52.0067 1.49357C54.6334 3.43428 56.2569 4.63349 57.3245 5.42186C58.6429 6.39987 58.865 6.5543 59.531 7.05189C58.5576 6.45135 56.9865 6.79407 55.7911 7.46369C53.8614 8.54467 50.1567 10.6898 48.1687 11.8179L34.5217 19.5623C33.8386 19.9499 32.9932 19.4541 32.9932 18.6659V13.8402C32.9932 13.0325 33.3756 12.273 34.0232 11.7945L47.9632 1.49372Z" fill="url(#paint0_linear_1213_14410)"/>
</g>
<g clip-path="url(#clip1_1213_14410)">
<path d="M96.434 39.5689V31.3197C96.434 30.3973 96.2152 29.6819 95.7776 29.1733C95.3487 28.6561 94.7525 28.3975 93.9889 28.3975C93.4999 28.3975 93.0753 28.5139 92.7149 28.7466C92.3546 28.9708 92.0715 29.2897 91.8656 29.7034C91.6683 30.1086 91.5696 30.5783 91.5696 31.1128L90.1027 30.1301C90.1027 29.1733 90.3257 28.3286 90.7718 27.5959C91.2265 26.8632 91.8313 26.2943 92.5862 25.8892C93.3498 25.4754 94.1948 25.2686 95.1214 25.2686C96.7085 25.2686 97.9053 25.7426 98.7117 26.6908C99.5266 27.6304 99.9342 28.863 99.9342 30.3887V39.5689H96.434ZM79.6792 39.5689V25.6047H82.7676V30.2336H83.2051V39.5689H79.6792ZM88.0694 39.5689V31.3197C88.0694 30.3973 87.8507 29.6819 87.4132 29.1733C86.9842 28.6561 86.3879 28.3975 85.6244 28.3975C84.8952 28.3975 84.3075 28.6518 83.8614 29.1604C83.4239 29.6603 83.2051 30.3111 83.2051 31.1128L81.7381 30.0784C81.7381 29.1647 81.9655 28.3458 82.4202 27.6218C82.8749 26.8977 83.484 26.3245 84.2475 25.9021C85.0196 25.4797 85.8818 25.2686 86.834 25.2686C87.9235 25.2686 88.8158 25.5013 89.5107 25.9668C90.2142 26.4322 90.7332 27.0529 91.0677 27.8286C91.4024 28.6044 91.5696 29.4578 91.5696 30.3887V39.5689H88.0694Z" fill="white"/>
<path d="M69.5455 39.9823C68.456 39.9823 67.568 39.7969 66.8817 39.4264C66.1954 39.0557 65.6592 38.5859 65.2731 38.017C64.8957 37.4481 64.6255 36.8576 64.4624 36.2456C64.2994 35.625 64.2007 35.0604 64.1664 34.5519C64.1321 34.0433 64.115 33.6726 64.115 33.4399V25.6045H67.6667V32.1986C67.6667 32.5176 67.6838 32.927 67.7182 33.4269C67.7525 33.9182 67.8598 34.4139 68.0399 34.9139C68.22 35.4138 68.5118 35.8319 68.915 36.1681C69.3267 36.5042 69.9059 36.6724 70.6522 36.6724C70.9524 36.6724 71.2741 36.6249 71.6173 36.53C71.9605 36.4353 72.2822 36.2542 72.5825 35.987C72.8827 35.7112 73.1272 35.3103 73.316 34.7846C73.5133 34.2501 73.612 33.5519 73.612 32.69L75.6194 33.6468C75.6194 34.7501 75.3964 35.7845 74.9503 36.7499C74.5042 37.7153 73.8307 38.4954 72.9299 39.0902C72.0377 39.6849 70.9095 39.9823 69.5455 39.9823ZM74.0495 39.5686V34.9398H73.612V25.6045H77.1379V39.5686H74.0495Z" fill="white"/>
<path d="M55.9459 39.9567C54.5219 39.9567 53.2651 39.6507 52.1756 39.0387C51.0946 38.418 50.2453 37.569 49.6276 36.4915C49.0184 35.4054 48.7139 34.1641 48.7139 32.7677C48.7139 31.242 49.0142 29.9146 49.6146 28.7854C50.2152 27.6562 51.043 26.7813 52.0983 26.1607C53.1535 25.5314 54.3674 25.2168 55.7401 25.2168C57.1985 25.2168 58.4381 25.5616 59.4591 26.2512C60.48 26.9408 61.2349 27.9105 61.724 29.1603C62.213 30.4102 62.3846 31.8799 62.2387 33.5693H58.7771V32.2764C58.7771 30.8541 58.5497 29.8327 58.095 29.2121C57.6489 28.5828 56.9154 28.2682 55.8945 28.2682C54.7021 28.2682 53.8227 28.6345 53.2565 29.3672C52.6988 30.0913 52.42 31.1645 52.42 32.5867C52.42 33.8883 52.6988 34.8968 53.2565 35.6123C53.8227 36.3191 54.6506 36.6726 55.7401 36.6726C56.4265 36.6726 57.0141 36.5216 57.5031 36.22C57.992 35.9183 58.3653 35.483 58.6227 34.9141L62.1229 35.9226C61.5996 37.1983 60.7717 38.1897 59.6393 38.8964C58.5154 39.6032 57.2844 39.9567 55.9459 39.9567ZM51.339 33.5693V30.9576H60.553V33.5693H51.339Z" fill="white"/>
<path d="M47.9401 39.5686C46.9793 39.7495 46.0356 39.8272 45.109 39.8013C44.1911 39.7841 43.3675 39.6246 42.6383 39.3229C41.9177 39.0126 41.3686 38.517 40.9911 37.836C40.648 37.1982 40.4678 36.5517 40.4507 35.8966C40.4335 35.2328 40.4249 34.4829 40.4249 33.6468V21.7256H43.9252V33.4399C43.9252 33.9829 43.9294 34.4742 43.9381 34.9138C43.9552 35.3448 44.0453 35.6897 44.2082 35.9483C44.5172 36.4396 45.0104 36.7069 45.6882 36.7499C46.3659 36.793 47.1166 36.7585 47.9401 36.6464V39.5686ZM38.0571 28.3197V25.6045H47.9401V28.3197H38.0571Z" fill="white"/>
<path d="M28.9716 39.9567C27.9764 39.9567 27.1314 39.7671 26.4365 39.3877C25.7501 38.9998 25.2268 38.4869 24.8665 37.8491C24.5148 37.2026 24.3389 36.4915 24.3389 35.7157C24.3389 35.0692 24.4375 34.4788 24.6349 33.9444C24.8322 33.4099 25.1497 32.9401 25.5872 32.535C26.0333 32.1213 26.6295 31.7765 27.3758 31.5006C27.8906 31.311 28.504 31.1429 29.216 30.9964C29.9282 30.8498 30.7345 30.7119 31.6353 30.5826C32.5362 30.4447 33.5271 30.2939 34.608 30.1301L33.3469 30.8283C33.3469 30.0008 33.1496 29.3931 32.7549 29.0052C32.3602 28.6173 31.6997 28.4234 30.7732 28.4234C30.2585 28.4234 29.7223 28.5484 29.1646 28.7983C28.607 29.0483 28.2166 29.4922 27.9935 30.1301L24.828 29.1216C25.1796 27.9665 25.8402 27.027 26.8097 26.3029C27.7791 25.5788 29.1002 25.2168 30.7732 25.2168C32 25.2168 33.0895 25.4064 34.0418 25.7857C34.994 26.165 35.7147 26.8201 36.2037 27.751C36.4782 28.2682 36.6412 28.7854 36.6927 29.3026C36.7442 29.8198 36.7699 30.3973 36.7699 31.0352V39.5688H33.7072V36.6984L34.1448 37.2931C33.4669 38.2327 32.7335 38.9137 31.9442 39.3361C31.1635 39.7498 30.1726 39.9567 28.9716 39.9567ZM29.7179 37.1897C30.3614 37.1897 30.9019 37.0776 31.3394 36.8535C31.7855 36.6208 32.1372 36.3579 32.3945 36.0648C32.6606 35.7717 32.8408 35.526 32.9351 35.3278C33.1153 34.9486 33.2182 34.509 33.2439 34.009C33.2783 33.5004 33.2954 33.078 33.2954 32.7419L34.3248 33.0005C33.2869 33.1729 32.4461 33.3194 31.8027 33.4401C31.1592 33.5521 30.6402 33.6556 30.2456 33.7504C29.8509 33.8453 29.5035 33.9486 29.2032 34.0608C28.86 34.1986 28.5812 34.3494 28.3667 34.5132C28.1609 34.6684 28.0065 34.8408 27.9035 35.0305C27.8091 35.22 27.7619 35.4313 27.7619 35.664C27.7619 35.9829 27.8392 36.2588 27.9935 36.4915C28.1566 36.7156 28.384 36.8881 28.6756 37.0087C28.9673 37.1294 29.3147 37.1897 29.7179 37.1897Z" fill="white"/>
<path d="M22.671 39.5686C21.7102 39.7495 20.7666 39.8272 19.84 39.8013C18.9221 39.7841 18.0984 39.6246 17.3693 39.3229C16.6487 39.0126 16.0996 38.517 15.7221 37.836C15.379 37.1982 15.1988 36.5517 15.1816 35.8966C15.1645 35.2328 15.1559 34.4829 15.1559 33.6468V21.7256H18.6561V33.4399C18.6561 33.9829 18.6604 34.4742 18.669 34.9138C18.6862 35.3448 18.7763 35.6897 18.9392 35.9483C19.2481 36.4396 19.7413 36.7069 20.4192 36.7499C21.0969 36.793 21.8476 36.7585 22.671 36.6464V39.5686ZM12.7881 28.3197V25.6045H22.671V28.3197H12.7881Z" fill="white"/>
<path d="M6.20263 39.9567C4.45251 39.9567 3.03697 39.5602 1.95601 38.7671C0.883638 37.9654 0.231634 36.8363 0 35.3796L3.57745 34.8365C3.72328 35.4916 4.045 36.0045 4.54258 36.3752C5.04874 36.7457 5.68788 36.9311 6.45999 36.9311C7.09484 36.9311 7.58384 36.8104 7.927 36.5691C8.27017 36.3191 8.44175 35.9743 8.44175 35.5347C8.44175 35.2589 8.37312 35.0391 8.23585 34.8753C8.09859 34.7029 7.78974 34.5348 7.30931 34.371C6.83747 34.2072 6.09968 33.9917 5.09594 33.7245C3.9635 33.4315 3.05842 33.1039 2.38068 32.7419C1.70293 32.3799 1.21393 31.9489 0.913665 31.4489C0.613399 30.9403 0.463266 30.3283 0.463266 29.6129C0.463266 28.7164 0.69061 27.9407 1.1453 27.2856C1.59999 26.6218 2.23912 26.1133 3.06271 25.7598C3.89487 25.3978 4.87287 25.2168 5.99673 25.2168C7.08626 25.2168 8.0514 25.3849 8.89214 25.7211C9.73288 26.0572 10.4106 26.5356 10.9254 27.1563C11.4487 27.7769 11.7704 28.5096 11.8905 29.3543L8.31306 30.0008C8.25301 29.4836 8.02995 29.0742 7.6439 28.7725C7.25784 28.4708 6.73452 28.2941 6.07394 28.2423C5.43051 28.1993 4.91148 28.2854 4.51685 28.5009C4.13079 28.7164 3.93776 29.0267 3.93776 29.4319C3.93776 29.6732 4.01927 29.8758 4.18227 30.0396C4.35384 30.2033 4.70129 30.3714 5.22462 30.5438C5.75651 30.7162 6.56294 30.9403 7.6439 31.2162C8.69911 31.492 9.54414 31.8153 10.179 32.1859C10.8224 32.5479 11.29 32.9875 11.5816 33.5048C11.8734 34.0133 12.0192 34.6296 12.0192 35.3537C12.0192 36.7846 11.5045 37.9095 10.475 38.7283C9.44549 39.5472 8.02137 39.9567 6.20263 39.9567Z" fill="white"/>
</g>
<defs>
<filter id="filter0_f_1213_14410" x="-3.55234" y="-50.2115" width="114.241" height="112.1" filterUnits="userSpaceOnUse" color-interpolation-filters="sRGB">
<feFlood flood-opacity="0" result="BackgroundImageFix"/>
<feBlend mode="normal" in="SourceGraphic" in2="BackgroundImageFix" result="shape"/>
<feGaussianBlur stdDeviation="24.0291" result="effect1_foregroundBlur_1213_14410"/>
</filter>
<linearGradient id="paint0_linear_1213_14410" x1="54.2371" y1="3.2599" x2="32.937" y2="16.4498" gradientUnits="userSpaceOnUse">
<stop stop-color="#00BF86"/>
<stop offset="1" stop-color="#00DF9C"/>
</linearGradient>
<clipPath id="clip0_1213_14410">
<rect width="34.0757" height="20.4755" fill="white" transform="translate(32.9619)"/>
</clipPath>
<clipPath id="clip1_1213_14410">
<rect width="100" height="18.3496" fill="white" transform="translate(0 21.6504)"/>
</clipPath>
</defs>
</svg>
