<svg width="39" height="39" viewBox="0 0 39 39" fill="none" xmlns="http://www.w3.org/2000/svg">
<path d="M19.4908 39C16.8206 39 14.3105 38.4891 11.9602 37.4673C9.61003 36.4579 7.53668 35.0545 5.74018 33.2571C3.94368 31.4721 2.53478 29.4039 1.51349 27.0526C0.504496 24.7012 0 22.1837 0 19.5C0 16.8286 0.504496 14.3172 1.51349 11.9659C2.53478 9.61458 3.93753 7.54025 5.72172 5.7429C7.51822 3.94555 9.59158 2.54214 11.9418 1.53267C14.3043 0.51089 16.8206 0 19.4908 0C22.1609 0 24.6711 0.51089 27.0213 1.53267C29.3838 2.54214 31.4572 3.94555 33.2414 5.7429C35.0379 7.54025 36.4468 9.61458 37.4681 11.9659C38.4894 14.3172 39 16.8286 39 19.5C39 22.1837 38.4894 24.7012 37.4681 27.0526C36.4468 29.4039 35.0379 31.4721 33.2414 33.2571C31.4572 35.0545 29.39 36.4579 27.0398 37.4673C24.6895 38.4891 22.1732 39 19.4908 39ZM19.4908 34.1435C21.5211 34.1435 23.4221 33.7618 25.194 32.9986C26.9659 32.2476 28.5225 31.2074 29.8637 29.8778C31.2049 28.536 32.2508 26.9787 33.0014 25.206C33.7643 23.4332 34.1458 21.5312 34.1458 19.5C34.1458 17.4688 33.7643 15.5729 33.0014 13.8125C32.2385 12.0398 31.1865 10.4825 29.8452 9.14062C28.5163 7.79877 26.9659 6.75237 25.194 6.00142C23.4221 5.23816 21.5211 4.85653 19.4908 4.85653C17.4605 4.85653 15.5594 5.23816 13.7875 6.00142C12.0279 6.75237 10.4775 7.79877 9.1363 9.14062C7.79508 10.4825 6.74917 12.0398 5.99858 13.8125C5.24799 15.5729 4.87269 17.4688 4.87269 19.5C4.87269 21.5312 5.24799 23.4332 5.99858 25.206C6.74917 26.9787 7.79508 28.536 9.1363 29.8778C10.4775 31.2074 12.0341 32.2476 13.806 32.9986C15.5779 33.7618 17.4728 34.1435 19.4908 34.1435ZM23.8282 29.804C23.4591 29.804 23.0715 29.6132 22.6654 29.2315L19.4539 26.3693H13.9352C12.6432 26.3693 11.628 26.0062 10.8897 25.2798C10.1637 24.5412 9.80076 23.5256 9.80076 22.233V15.5298C9.80076 14.2618 10.1637 13.2585 10.8897 12.5199C11.628 11.7689 12.6432 11.3935 13.9352 11.3935H25.0464C26.3384 11.3935 27.3474 11.7628 28.0734 12.5014C28.7993 13.2401 29.1623 14.2495 29.1623 15.5298V22.233C29.1623 23.5256 28.787 24.5412 28.0364 25.2798C27.2982 26.0062 26.3445 26.3693 25.1756 26.3693H24.6957V28.8253C24.6957 29.4777 24.4065 29.804 23.8282 29.804Z" fill="white"/>
</svg>
