<svg width="13" height="13" viewBox="0 0 13 13" xmlns="http://www.w3.org/2000/svg">
<path d="M3.49281 7.3286C3.34204 7.3286 3.21369 7.27764 3.10774 7.17572C3.00587 7.0738 2.95494 6.94742 2.95494 6.79658C2.95494 6.64982 3.00587 6.52548 3.10774 6.42356C3.21369 6.32164 3.34204 6.27068 3.49281 6.27068H5.96824V2.88291C5.96824 2.73207 6.01918 2.6057 6.12105 2.50378C6.22291 2.40186 6.3472 2.3509 6.49389 2.3509C6.64465 2.3509 6.77097 2.40186 6.87284 2.50378C6.97471 2.6057 7.02565 2.73207 7.02565 2.88291V6.79658C7.02565 6.94742 6.97471 7.0738 6.87284 7.17572C6.77097 7.27764 6.64465 7.3286 6.49389 7.3286H3.49281ZM6.5 12.875C5.628 12.875 4.80693 12.7079 4.03679 12.3736C3.26666 12.0433 2.58821 11.5847 2.00144 10.9977C1.41467 10.4106 0.954219 9.73387 0.620086 8.96745C0.290029 8.19694 0.125 7.37344 0.125 6.49694C0.125 5.62452 0.290029 4.8051 0.620086 4.03867C0.954219 3.26817 1.41263 2.58939 1.99533 2.00234C2.58209 1.41529 3.26055 0.956655 4.03068 0.626439C4.80082 0.292146 5.62188 0.125 6.49389 0.125C7.36589 0.125 8.18696 0.292146 8.9571 0.626439C9.7313 0.956655 10.4098 1.41529 10.9924 2.00234C11.5792 2.58939 12.0397 3.26817 12.3738 4.03867C12.7079 4.8051 12.875 5.62452 12.875 6.49694C12.875 7.37344 12.7079 8.19694 12.3738 8.96745C12.0397 9.73387 11.5792 10.4106 10.9924 10.9977C10.4098 11.5847 9.73334 12.0433 8.96321 12.3736C8.19307 12.7079 7.372 12.875 6.5 12.875ZM6.5 11.4746C7.18864 11.4746 7.83245 11.3462 8.43145 11.0894C9.03452 10.8326 9.56424 10.4779 10.0206 10.0254C10.477 9.56876 10.8335 9.04083 11.0902 8.44155C11.347 7.83819 11.4753 7.18999 11.4753 6.49694C11.4753 5.80797 11.3449 5.16385 11.0841 4.56457C10.8274 3.96121 10.4709 3.43123 10.0145 2.97464C9.5622 2.51805 9.03452 2.16133 8.43145 1.9045C7.83245 1.64766 7.1866 1.51924 6.49389 1.51924C5.80525 1.51924 5.1594 1.64766 4.55633 1.9045C3.95733 2.16133 3.42965 2.51805 2.97327 2.97464C2.52097 3.43123 2.16647 3.96121 1.90976 4.56457C1.65712 5.16385 1.5308 5.80797 1.5308 6.49694C1.5308 7.18999 1.65712 7.83819 1.90976 8.44155C2.16647 9.04083 2.52301 9.56876 2.97939 10.0254C3.43576 10.4779 3.96345 10.8326 4.56244 11.0894C5.16551 11.3462 5.81136 11.4746 6.5 11.4746Z"/>
</svg>
