<svg width="16" height="13" viewBox="0 0 16 13" fill="none" xmlns="http://www.w3.org/2000/svg">
<path d="M7.63565 2.98076C7.78729 2.98076 7.91698 3.03579 8.02472 3.14586C8.13247 3.25594 8.18634 3.38843 8.18634 3.54335V7.59155L7.62368 5.83651L9.5391 8.45989C9.63887 8.59442 9.68276 8.74119 9.67079 8.90018C9.65882 9.0551 9.58899 9.17944 9.46129 9.2732C9.32561 9.37104 9.18196 9.40773 9.03032 9.38327C8.87868 9.35474 8.747 9.26709 8.63527 9.12032L7.23461 7.23687C7.18274 7.16757 7.14283 7.09826 7.1149 7.02896C7.09096 6.95558 7.07899 6.87812 7.07899 6.79658V3.54335C7.07899 3.38843 7.13286 3.25594 7.2406 3.14586C7.34834 3.03579 7.48003 2.98076 7.63565 2.98076ZM7.85713 0.125C8.48363 0.125 9.09616 0.22488 9.69473 0.42464C10.2933 0.620324 10.846 0.897542 11.3528 1.25629C11.8635 1.61097 12.3005 2.02476 12.6636 2.49766C12.8153 2.68112 12.8831 2.87068 12.8671 3.06637C12.8552 3.26205 12.7734 3.41697 12.6217 3.53112C12.4621 3.66157 12.2905 3.70845 12.107 3.67176C11.9274 3.63507 11.7678 3.53723 11.6281 3.37824C11.3248 2.9991 10.9777 2.67092 10.5866 2.3937C10.1995 2.11649 9.77454 1.90246 9.31165 1.75162C8.85275 1.60078 8.3679 1.52536 7.85713 1.52536C7.29048 1.52536 6.75376 1.61709 6.24697 1.80054C5.74019 1.98399 5.27929 2.24083 4.86428 2.57104C4.44927 2.90126 4.09412 3.29059 3.79883 3.73903C3.50752 4.18339 3.29403 4.6726 3.15836 5.20665H4.01431C4.17393 5.20665 4.29364 5.24538 4.37345 5.32284C4.45725 5.4003 4.49716 5.49814 4.49317 5.61637C4.48918 5.73459 4.44528 5.85486 4.36148 5.97716L2.82914 8.12356C2.72539 8.26217 2.60169 8.33351 2.45803 8.33759C2.31438 8.33759 2.19067 8.26625 2.08692 8.12356L0.554582 5.98327C0.466792 5.86097 0.420901 5.74071 0.416911 5.62248C0.412921 5.50018 0.45083 5.4003 0.530639 5.32284C0.614439 5.24538 0.738143 5.20665 0.901752 5.20665H1.74573C1.89338 4.48507 2.15276 3.81649 2.52387 3.2009C2.89898 2.58123 3.35788 2.04107 3.90058 1.5804C4.44728 1.11972 5.05582 0.76301 5.72622 0.510252C6.39662 0.253417 7.10692 0.125 7.85713 0.125ZM7.85713 12.875C7.23062 12.875 6.61809 12.7751 6.01952 12.5754C5.42095 12.3797 4.86627 12.1025 4.3555 11.7437C3.84871 11.385 3.41375 10.9712 3.05062 10.5023C2.89898 10.3148 2.82914 10.1252 2.84112 9.93363C2.85708 9.73795 2.93888 9.58099 3.08653 9.46277C3.25014 9.33231 3.42173 9.28747 3.6013 9.32824C3.78486 9.36493 3.94847 9.46073 4.09213 9.61565C4.38742 9.99478 4.7306 10.325 5.12166 10.6063C5.51273 10.8835 5.93771 11.0975 6.39662 11.2484C6.85552 11.3992 7.34236 11.4746 7.85713 11.4746C8.42377 11.4746 8.96049 11.3829 9.46728 11.1995C9.97406 11.0201 10.435 10.7653 10.85 10.4351C11.265 10.1008 11.6181 9.70941 11.9094 9.26097C12.2047 8.81253 12.4222 8.32332 12.5619 7.79334H11.7059C11.5423 7.79334 11.4186 7.75462 11.3348 7.67716C11.255 7.59562 11.2171 7.49574 11.2211 7.37752C11.2251 7.25929 11.269 7.13903 11.3528 7.01673L12.8851 4.87644C12.9889 4.73783 13.1126 4.66853 13.2562 4.66853C13.3999 4.66445 13.5216 4.73375 13.6213 4.87644L15.1537 7.01673C15.2455 7.13903 15.2914 7.26133 15.2914 7.38363C15.2953 7.50186 15.2554 7.5997 15.1716 7.67716C15.0918 7.75462 14.9701 7.79334 14.8065 7.79334H13.9625C13.8189 8.51493 13.5595 9.18351 13.1844 9.7991C12.8133 10.4147 12.3544 10.9528 11.8077 11.4135C11.265 11.8742 10.6584 12.2329 9.98803 12.4897C9.31763 12.7466 8.60733 12.875 7.85713 12.875Z" fill="#141623"/>
</svg>
