<svg width="106" height="116" viewBox="0 0 106 116" fill="none" xmlns="http://www.w3.org/2000/svg">
<g opacity="0.7">
<path d="M78.2547 45.3127L78.0085 45.1734L77.7623 45.3127L7.1742 85.2477C4.39115 86.8223 0.943726 84.809 0.943726 81.6039L0.943726 59.6451C0.943726 56.1284 2.61383 52.8217 5.4416 50.7385L69.069 3.86532C74.3821 -0.0487783 81.6182 -0.0490444 86.9316 3.86467L150.558 50.7298C153.386 52.8129 155.056 56.1198 155.056 59.6368V81.5916C155.056 84.7966 151.609 86.8099 148.826 85.2355L78.2547 45.3127Z" stroke="#00BF86"/>
<path d="M78.2547 109.447L78.0085 109.308L77.7623 109.447L7.1742 149.382C4.39115 150.956 0.943726 148.943 0.943726 145.738L0.943726 123.779C0.943726 120.263 2.61383 116.956 5.4416 114.873L69.069 67.9995C74.3821 64.0854 81.6182 64.0851 86.9316 67.9988L150.558 114.864C153.386 116.947 155.056 120.254 155.056 123.771V145.726C155.056 148.931 151.609 150.944 148.826 149.37L78.2547 109.447Z" stroke="#00BF86"/>
</g>
</svg>
