<svg width="20" height="20" viewBox="0 0 20 20" fill="none" xmlns="http://www.w3.org/2000/svg">
<rect width="20" height="20" rx="6" fill="#D7EBE5"/>
<path d="M5.83847 9.93436V9.13411C6.43833 9.38855 7.08818 9.57869 7.78801 9.70454C8.48785 9.82766 9.22452 9.88922 9.99802 9.88922C10.7742 9.88922 11.5121 9.82766 12.212 9.70454C12.9118 9.57869 13.5617 9.38991 14.1615 9.13821L14.1655 9.93436C13.5419 10.1642 12.8789 10.3365 12.1765 10.4514C11.4766 10.5664 10.7505 10.6238 9.99802 10.6238C9.2482 10.6238 8.52205 10.5664 7.81959 10.4514C7.11975 10.3365 6.45938 10.1642 5.83847 9.93436ZM9.38238 11.3871C9.06403 11.3871 8.90486 11.2271 8.90486 10.907V10.2011H11.0912V10.907C11.0912 11.2271 10.932 11.3871 10.6137 11.3871H9.38238ZM6.60803 14.0834C6.18971 14.0834 5.87268 13.9725 5.65694 13.7509C5.4412 13.5321 5.33333 13.2051 5.33333 12.7701V8.75245C5.33333 8.3147 5.4412 7.9864 5.65694 7.76752C5.87268 7.54865 6.18971 7.43922 6.60803 7.43922H13.392C13.8129 7.43922 14.1299 7.54865 14.3431 7.76752C14.5588 7.9864 14.6667 8.3147 14.6667 8.75245V12.7701C14.6667 13.2051 14.5588 13.5321 14.3431 13.7509C14.1299 13.9725 13.8129 14.0834 13.392 14.0834H6.60803ZM6.6396 13.3077H13.3604C13.5314 13.3077 13.6616 13.2598 13.7511 13.1641C13.8432 13.0711 13.8892 12.9315 13.8892 12.7455V8.77707C13.8892 8.58829 13.8432 8.4474 13.7511 8.35438C13.6616 8.26135 13.5314 8.21484 13.3604 8.21484H6.6396C6.46859 8.21484 6.33704 8.26135 6.24496 8.35438C6.1555 8.4474 6.11078 8.58829 6.11078 8.77707V12.7455C6.11078 12.9315 6.1555 13.0711 6.24496 13.1641C6.33704 13.2598 6.46859 13.3077 6.6396 13.3077ZM7.93009 7.77163V7.06166C7.93009 6.6759 8.03269 6.38863 8.23791 6.19985C8.44312 6.01108 8.72201 5.91669 9.07455 5.91669H10.9175C11.2911 5.91669 11.5753 6.01108 11.77 6.19985C11.9673 6.38863 12.066 6.6759 12.066 7.06166V7.76752H11.3477V7.06577C11.3477 6.91803 11.3082 6.80449 11.2293 6.72515C11.153 6.6458 11.0425 6.60613 10.8978 6.60613H9.10218C8.95748 6.60613 8.84566 6.6458 8.76673 6.72515C8.6878 6.80449 8.64834 6.91803 8.64834 7.06577V7.77163H7.93009Z" fill="#00BF86"/>
</svg>
