<svg width="40" height="40" viewBox="0 0 40 40" fill="none" xmlns="http://www.w3.org/2000/svg">
<rect x="0.5" y="0.5" width="39" height="39" rx="13.5" stroke="#141623" stroke-opacity="0.7"/>
<path d="M27.2097 11.6545C27.2097 11.6545 29.1523 10.897 28.9904 12.7366C28.9365 13.4942 28.4508 16.1454 28.073 19.0131L26.778 27.5079C26.778 27.5079 26.67 28.7524 25.6987 28.9688C24.7274 29.1852 23.2704 28.2113 23.0005 27.9949C22.7847 27.8326 18.9534 25.3977 17.6043 24.2074C17.2265 23.8827 16.7948 23.2334 17.6582 22.476L23.3244 17.0653C23.9719 16.416 24.6194 14.9009 21.9213 16.7406L14.3666 21.8808C14.3666 21.8808 13.5032 22.4219 11.8843 21.9349L8.37671 20.8527C8.37671 20.8527 7.08161 20.0412 9.29408 19.2295C14.6904 16.6865 21.3278 14.0893 27.2097 11.6545Z" fill="#141623" fill-opacity="0.7"/>
</svg>
