<svg width="53" height="54" viewBox="0 0 53 54" fill="none" xmlns="http://www.w3.org/2000/svg">
<path d="M1.05365 30.1464C-0.35113 28.2395 -0.351226 25.6423 1.05341 23.7353L17.333 1.63343C18.0894 0.606506 19.2901 8.30801e-05 20.5669 8.30243e-05L28.1934 8.2691e-05C29.4393 8.26365e-05 30.223 1.34057 29.6104 2.42354L15.7423 26.938L29.6146 51.4583C30.2273 52.5413 29.4436 53.8818 28.1977 53.8818L20.5698 53.8818C19.2931 53.8818 18.0925 53.2755 17.3361 52.2487L1.05365 30.1464Z" fill="#00BF86"/>
<path d="M23.332 30.1464C21.9272 28.2395 21.9271 25.6423 23.3317 23.7353L39.6114 1.63343C40.3678 0.606506 41.5684 8.30801e-05 42.8453 8.30243e-05L50.4717 8.2691e-05C51.7176 8.26365e-05 52.5014 1.34057 51.8887 2.42354L38.0206 26.938L51.893 51.4583C52.5057 52.5413 51.7219 53.8818 50.476 53.8818L42.8481 53.8818C41.5714 53.8818 40.3708 53.2755 39.6144 52.2487L23.332 30.1464Z" fill="#00BF86"/>
</svg>
