<svg width="17" height="16" viewBox="0 0 17 16" fill="none" xmlns="http://www.w3.org/2000/svg">
<path d="M8.60001 0C4.18934 0 0.600006 3.58933 0.600006 8C0.600006 12.4107 4.18934 16 8.60001 16C13.0107 16 16.6 12.4107 16.6 8C16.6 3.58933 13.0107 0 8.60001 0ZM8.60001 1.33333C12.29 1.33333 15.2667 4.31 15.2667 8C15.2683 9.59598 14.696 11.1393 13.6542 12.3484C12.6125 13.5575 11.1707 14.3517 9.59201 14.586V9.944H11.4907L11.7887 8.01533H9.59201V6.962C9.59201 6.162 9.85534 5.45067 10.604 5.45067H11.8073V3.768C11.596 3.73933 11.1487 3.67733 10.3033 3.67733C8.53801 3.67733 7.50334 4.60933 7.50334 6.73333V8.01533H5.68867V9.944H7.50334V14.5693C5.94651 14.3131 4.5315 13.5117 3.51113 12.3082C2.49077 11.1048 1.93153 9.57778 1.93334 8C1.93334 4.31 4.91001 1.33333 8.60001 1.33333Z" fill="#00BF86"/>
</svg>
