<svg width="17" height="16" viewBox="0 0 17 16" fill="none" xmlns="http://www.w3.org/2000/svg">
<path d="M2.01819 0C1.53704 0.00342742 1.07657 0.196086 0.736333 0.536321C0.396098 0.876556 0.20344 1.33703 0.200012 1.81818V14.1818C0.200012 15.176 1.02401 16 2.01819 16H14.3818C15.376 16 16.2 15.176 16.2 14.1818V1.81818C16.2 0.824 15.376 0 14.3818 0H2.01819ZM2.01819 1.45455H14.3818C14.5891 1.45455 14.7455 1.61091 14.7455 1.81818V14.1818C14.7465 14.2298 14.7377 14.2776 14.7198 14.3221C14.7019 14.3667 14.6751 14.4072 14.6412 14.4412C14.6072 14.4751 14.5667 14.5019 14.5222 14.5198C14.4776 14.5377 14.4299 14.5464 14.3818 14.5455H2.01819C1.97014 14.5465 1.92237 14.5379 1.87775 14.52C1.83314 14.5021 1.79262 14.4754 1.75863 14.4414C1.72464 14.4074 1.6979 14.3669 1.68001 14.3223C1.66212 14.2776 1.65346 14.2299 1.65456 14.1818V1.81818C1.65456 1.61091 1.81092 1.45455 2.01819 1.45455ZM4.15492 2.70473C3.98826 2.70071 3.82247 2.73006 3.66732 2.79106C3.51217 2.85206 3.37078 2.94348 3.25148 3.05994C3.13219 3.17639 3.03738 3.31553 2.97266 3.46917C2.90793 3.6228 2.87459 3.78783 2.87459 3.95455C2.87459 4.12126 2.90793 4.28629 2.97266 4.43993C3.03738 4.59356 3.13219 4.7327 3.25148 4.84915C3.37078 4.96561 3.51217 5.05703 3.66732 5.11803C3.82247 5.17903 3.98826 5.20838 4.15492 5.20436C4.48117 5.19649 4.79142 5.06136 5.01938 4.82783C5.24734 4.5943 5.37495 4.28089 5.37495 3.95455C5.37495 3.6282 5.24734 3.31479 5.01938 3.08126C4.79142 2.84773 4.48117 2.7126 4.15492 2.70473ZM10.7222 6.02255C9.68001 6.02255 8.98692 6.59345 8.70038 7.136H8.65456V6.18182H6.60874V13.0909H8.74547V9.68145C8.74547 8.78109 8.92438 7.90909 10.0407 7.90909C11.1404 7.90909 11.1549 8.92582 11.1549 9.72727V13.0909H13.2909V9.29527C13.2909 7.43782 12.8953 6.02255 10.7222 6.02255ZM3.1091 6.18182V13.0909H5.26838V6.18182H3.1091Z" fill="#00BF86"/>
</svg>
