<svg width="100" height="40" viewBox="0 0 100 40" fill="none" xmlns="http://www.w3.org/2000/svg">
<g clip-path="url(#clip0_750_5506)">
<path d="M47.9633 1.49372C49.166 0.605014 50.8041 0.604952 52.0068 1.49357L65.9466 11.7926C66.5943 12.2711 66.9767 13.0307 66.9767 13.8385V18.6632C66.9767 19.4514 66.1312 19.9473 65.4483 19.5597L49.9869 10.7862L34.5218 19.5624C33.8388 19.9499 32.9933 19.4541 32.9933 18.6659V13.8403C32.9933 13.0326 33.3757 12.2731 34.0233 11.7945L47.9633 1.49372Z" fill="#00B57F"/>
<mask id="mask0_750_5506" style="mask-type:alpha" maskUnits="userSpaceOnUse" x="32" y="0" width="35" height="20">
<path d="M47.9633 1.49372C49.166 0.605014 50.8041 0.604952 52.0068 1.49357L65.9466 11.7926C66.5943 12.2711 66.9767 13.0307 66.9767 13.8385V18.6632C66.9767 19.4514 66.1312 19.9473 65.4483 19.5597L49.9869 10.7862L34.5218 19.5624C33.8388 19.9499 32.9933 19.4541 32.9933 18.6659V13.8403C32.9933 13.0326 33.3757 12.2731 34.0233 11.7945L47.9633 1.49372Z" fill="#00CB8E"/>
</mask>
<g mask="url(#mask0_750_5506)">
<g filter="url(#filter0_f_750_5506)">
<path d="M62.6305 6.80789L58.0171 -2.15332L44.506 4.86873L49.1194 13.8299L62.6305 6.80789Z" fill="#009367"/>
</g>
</g>
<path d="M47.9632 1.49372C49.166 0.605012 50.8039 0.604953 52.0067 1.49357C54.6334 3.43428 56.2569 4.63349 57.3245 5.42186C58.6429 6.39987 58.865 6.5543 59.531 7.05189C58.5576 6.45135 56.9865 6.79407 55.7911 7.46369C53.8614 8.54467 50.1567 10.6898 48.1687 11.8179L34.5217 19.5623C33.8386 19.9499 32.9932 19.4541 32.9932 18.6659V13.8402C32.9932 13.0325 33.3756 12.273 34.0232 11.7945L47.9632 1.49372Z" fill="url(#paint0_linear_750_5506)"/>
</g>
<g clip-path="url(#clip1_750_5506)">
<path d="M96.434 39.5689V31.3197C96.434 30.3973 96.2152 29.6819 95.7776 29.1733C95.3487 28.6561 94.7525 28.3975 93.9889 28.3975C93.4999 28.3975 93.0753 28.5139 92.7149 28.7466C92.3546 28.9708 92.0715 29.2897 91.8656 29.7034C91.6683 30.1086 91.5696 30.5784 91.5696 31.1128L90.1027 30.1301C90.1027 29.1733 90.3257 28.3286 90.7718 27.5959C91.2265 26.8632 91.8313 26.2943 92.5862 25.8892C93.3498 25.4754 94.1948 25.2686 95.1214 25.2686C96.7085 25.2686 97.9053 25.7426 98.7117 26.6908C99.5266 27.6304 99.9342 28.863 99.9342 30.3887V39.5689H96.434ZM79.6792 39.5689V25.6047H82.7676V30.2336H83.2051V39.5689H79.6792ZM88.0694 39.5689V31.3197C88.0694 30.3973 87.8507 29.6819 87.4132 29.1733C86.9842 28.6561 86.3879 28.3975 85.6244 28.3975C84.8952 28.3975 84.3075 28.6518 83.8614 29.1604C83.4239 29.6603 83.2051 30.3111 83.2051 31.1128L81.7381 30.0784C81.7381 29.1647 81.9655 28.3458 82.4202 27.6218C82.8749 26.8977 83.484 26.3245 84.2475 25.9021C85.0196 25.4797 85.8818 25.2686 86.834 25.2686C87.9235 25.2686 88.8158 25.5013 89.5107 25.9668C90.2142 26.4322 90.7332 27.0529 91.0677 27.8286C91.4024 28.6044 91.5696 29.4578 91.5696 30.3887V39.5689H88.0694Z" fill="#141623"/>
<path d="M69.5454 39.9823C68.4558 39.9823 67.5679 39.7969 66.8816 39.4264C66.1953 39.0557 65.6591 38.5859 65.273 38.017C64.8956 37.4481 64.6253 36.8576 64.4623 36.2456C64.2993 35.625 64.2006 35.0604 64.1663 34.5519C64.132 34.0433 64.1149 33.6726 64.1149 33.4399V25.6045H67.6665V32.1986C67.6665 32.5176 67.6837 32.927 67.7181 33.4269C67.7524 33.9182 67.8596 34.4139 68.0398 34.9139C68.2199 35.4138 68.5116 35.8319 68.9149 36.1681C69.3266 36.5042 69.9057 36.6724 70.6521 36.6724C70.9523 36.6724 71.274 36.6249 71.6172 36.53C71.9604 36.4353 72.2821 36.2542 72.5823 35.987C72.8826 35.7112 73.1271 35.3103 73.3159 34.7846C73.5132 34.2501 73.6119 33.5519 73.6119 32.69L75.6193 33.6468C75.6193 34.7501 75.3963 35.7845 74.9502 36.7499C74.5041 37.7153 73.8306 38.4954 72.9298 39.0902C72.0376 39.6849 70.9094 39.9823 69.5454 39.9823ZM74.0494 39.5686V34.9398H73.6119V25.6045H77.1378V39.5686H74.0494Z" fill="#141623"/>
<path d="M55.9459 39.9567C54.5219 39.9567 53.2651 39.6507 52.1756 39.0387C51.0946 38.418 50.2453 37.569 49.6276 36.4915C49.0184 35.4054 48.7139 34.1641 48.7139 32.7677C48.7139 31.242 49.0142 29.9146 49.6146 28.7854C50.2152 27.6562 51.043 26.7813 52.0983 26.1607C53.1535 25.5314 54.3674 25.2168 55.7401 25.2168C57.1985 25.2168 58.4381 25.5616 59.4591 26.2512C60.48 26.9408 61.2349 27.9105 61.724 29.1603C62.213 30.4102 62.3846 31.8799 62.2387 33.5693H58.7771V32.2764C58.7771 30.8541 58.5497 29.8327 58.095 29.2121C57.6489 28.5828 56.9154 28.2682 55.8945 28.2682C54.7021 28.2682 53.8227 28.6345 53.2565 29.3672C52.6988 30.0913 52.42 31.1645 52.42 32.5867C52.42 33.8883 52.6988 34.8968 53.2565 35.6123C53.8227 36.3191 54.6506 36.6726 55.7401 36.6726C56.4265 36.6726 57.0141 36.5216 57.5031 36.22C57.992 35.9183 58.3653 35.483 58.6227 34.9141L62.1229 35.9226C61.5996 37.1983 60.7717 38.1897 59.6393 38.8964C58.5154 39.6032 57.2844 39.9567 55.9459 39.9567ZM51.339 33.5693V30.9576H60.553V33.5693H51.339Z" fill="#141623"/>
<path d="M47.94 39.5686C46.9792 39.7495 46.0355 39.8272 45.1089 39.8013C44.191 39.7841 43.3674 39.6246 42.6382 39.3229C41.9176 39.0126 41.3685 38.517 40.991 37.836C40.6479 37.1982 40.4677 36.5517 40.4505 35.8966C40.4334 35.2328 40.4248 34.4829 40.4248 33.6468V21.7256H43.925V33.4399C43.925 33.9829 43.9293 34.4742 43.938 34.9138C43.9551 35.3448 44.0452 35.6897 44.2081 35.9483C44.517 36.4396 45.0102 36.7069 45.6881 36.7499C46.3658 36.793 47.1165 36.7585 47.94 36.6464V39.5686ZM38.057 28.3197V25.6045H47.94V28.3197H38.057Z" fill="#141623"/>
<path d="M28.9721 39.9567C27.9769 39.9567 27.1319 39.7671 26.437 39.3877C25.7506 38.9998 25.2273 38.4869 24.867 37.8491C24.5153 37.2026 24.3394 36.4915 24.3394 35.7157C24.3394 35.0692 24.438 34.4788 24.6353 33.9444C24.8327 33.4099 25.1502 32.9401 25.5877 32.535C26.0338 32.1213 26.63 31.7765 27.3763 31.5006C27.8911 31.311 28.5045 31.1429 29.2165 30.9964C29.9287 30.8498 30.735 30.7119 31.6358 30.5826C32.5367 30.4447 33.5276 30.2939 34.6085 30.1301L33.3474 30.8283C33.3474 30.0008 33.15 29.3931 32.7554 29.0052C32.3607 28.6173 31.7002 28.4234 30.7737 28.4234C30.259 28.4234 29.7228 28.5484 29.1651 28.7983C28.6075 29.0483 28.2171 29.4922 27.994 30.1301L24.8284 29.1216C25.1801 27.9665 25.8407 27.027 26.8102 26.3029C27.7796 25.5788 29.1007 25.2168 30.7737 25.2168C32.0005 25.2168 33.09 25.4064 34.0423 25.7857C34.9945 26.165 35.7152 26.8201 36.2042 27.751C36.4787 28.2682 36.6417 28.7854 36.6931 29.3026C36.7447 29.8198 36.7704 30.3973 36.7704 31.0352V39.5688H33.7077V36.6984L34.1453 37.2931C33.4674 38.2327 32.734 38.9137 31.9447 39.3361C31.164 39.7498 30.1731 39.9567 28.9721 39.9567ZM29.7184 37.1897C30.3619 37.1897 30.9024 37.0776 31.3399 36.8535C31.786 36.6208 32.1377 36.3579 32.395 36.0648C32.6611 35.7717 32.8413 35.526 32.9356 35.3278C33.1158 34.9486 33.2186 34.509 33.2444 34.009C33.2788 33.5004 33.2959 33.078 33.2959 32.7419L34.3253 33.0005C33.2874 33.1729 32.4466 33.3194 31.8032 33.4401C31.1597 33.5521 30.6407 33.6556 30.246 33.7504C29.8514 33.8453 29.5039 33.9486 29.2037 34.0608C28.8605 34.1986 28.5817 34.3494 28.3672 34.5132C28.1614 34.6684 28.007 34.8408 27.9039 35.0305C27.8096 35.22 27.7624 35.4313 27.7624 35.664C27.7624 35.9829 27.8397 36.2588 27.994 36.4915C28.1571 36.7156 28.3845 36.8881 28.6761 37.0087C28.9678 37.1294 29.3152 37.1897 29.7184 37.1897Z" fill="#141623"/>
<path d="M22.6709 39.5686C21.7101 39.7495 20.7665 39.8272 19.8399 39.8013C18.9219 39.7841 18.0983 39.6246 17.3691 39.3229C16.6485 39.0126 16.0994 38.517 15.7219 37.836C15.3788 37.1982 15.1987 36.5517 15.1815 35.8966C15.1644 35.2328 15.1558 34.4829 15.1558 33.6468V21.7256H18.656V33.4399C18.656 33.9829 18.6602 34.4742 18.6689 34.9138C18.6861 35.3448 18.7762 35.6897 18.9391 35.9483C19.248 36.4396 19.7412 36.7069 20.419 36.7499C21.0968 36.793 21.8474 36.7585 22.6709 36.6464V39.5686ZM12.788 28.3197V25.6045H22.6709V28.3197H12.788Z" fill="#141623"/>
<path d="M6.20263 39.9567C4.45251 39.9567 3.03697 39.5602 1.95601 38.7671C0.883638 37.9654 0.231634 36.8363 0 35.3796L3.57745 34.8365C3.72328 35.4916 4.045 36.0045 4.54258 36.3752C5.04874 36.7457 5.68788 36.9311 6.45999 36.9311C7.09484 36.9311 7.58384 36.8104 7.927 36.5691C8.27017 36.3191 8.44175 35.9743 8.44175 35.5347C8.44175 35.2589 8.37312 35.0391 8.23585 34.8753C8.09859 34.7029 7.78974 34.5348 7.30931 34.371C6.83747 34.2072 6.09968 33.9917 5.09594 33.7245C3.9635 33.4315 3.05842 33.1039 2.38068 32.7419C1.70293 32.3799 1.21393 31.9489 0.913665 31.4489C0.613399 30.9403 0.463266 30.3283 0.463266 29.6129C0.463266 28.7164 0.69061 27.9407 1.1453 27.2856C1.59999 26.6218 2.23912 26.1133 3.06271 25.7598C3.89487 25.3978 4.87287 25.2168 5.99673 25.2168C7.08626 25.2168 8.0514 25.3849 8.89214 25.7211C9.73288 26.0572 10.4106 26.5356 10.9254 27.1563C11.4487 27.7769 11.7704 28.5096 11.8905 29.3543L8.31306 30.0008C8.25301 29.4836 8.02995 29.0742 7.6439 28.7725C7.25784 28.4708 6.73452 28.2941 6.07394 28.2423C5.43051 28.1993 4.91148 28.2854 4.51685 28.5009C4.13079 28.7164 3.93776 29.0267 3.93776 29.4319C3.93776 29.6732 4.01927 29.8758 4.18227 30.0396C4.35384 30.2033 4.70129 30.3714 5.22462 30.5438C5.75651 30.7162 6.56294 30.9403 7.6439 31.2162C8.69911 31.492 9.54414 31.8153 10.179 32.1859C10.8224 32.5479 11.29 32.9875 11.5816 33.5048C11.8734 34.0133 12.0192 34.6296 12.0192 35.3537C12.0192 36.7846 11.5045 37.9095 10.475 38.7283C9.44549 39.5472 8.02137 39.9567 6.20263 39.9567Z" fill="#141623"/>
</g>
<defs>
<filter id="filter0_f_750_5506" x="-3.55222" y="-50.2115" width="114.241" height="112.1" filterUnits="userSpaceOnUse" color-interpolation-filters="sRGB">
<feFlood flood-opacity="0" result="BackgroundImageFix"/>
<feBlend mode="normal" in="SourceGraphic" in2="BackgroundImageFix" result="shape"/>
<feGaussianBlur stdDeviation="24.0291" result="effect1_foregroundBlur_750_5506"/>
</filter>
<linearGradient id="paint0_linear_750_5506" x1="54.2371" y1="3.2599" x2="32.937" y2="16.4498" gradientUnits="userSpaceOnUse">
<stop stop-color="#00BF86"/>
<stop offset="1" stop-color="#00DF9C"/>
</linearGradient>
<clipPath id="clip0_750_5506">
<rect width="34.0757" height="20.4755" fill="white" transform="translate(32.9619)"/>
</clipPath>
<clipPath id="clip1_750_5506">
<rect width="100" height="18.3496" fill="white" transform="translate(0 21.6504)"/>
</clipPath>
</defs>
</svg>
