<svg width="50" height="20" viewBox="0 0 50 20" fill="none" xmlns="http://www.w3.org/2000/svg">
<g clip-path="url(#clip0_750_4648)">
<path d="M23.9811 0.746861C24.5824 0.302507 25.4015 0.302476 26.0029 0.746783L32.9727 5.89631C33.2966 6.13553 33.4878 6.51533 33.4878 6.91925V9.33161C33.4878 9.72568 33.0651 9.97363 32.7236 9.77984L24.9929 5.39312L17.2604 9.78118C16.9188 9.97497 16.4961 9.72703 16.4961 9.33296V6.92014C16.4961 6.51628 16.6873 6.13654 17.0111 5.89726L23.9811 0.746861Z" fill="#00B57F"/>
<mask id="mask0_750_4648" style="mask-type:alpha" maskUnits="userSpaceOnUse" x="16" y="0" width="18" height="10">
<path d="M23.9811 0.746861C24.5824 0.302507 25.4015 0.302476 26.0029 0.746783L32.9727 5.89631C33.2966 6.13553 33.4878 6.51533 33.4878 6.91925V9.33161C33.4878 9.72568 33.0651 9.97363 32.7236 9.77984L24.9929 5.39312L17.2604 9.78118C16.9188 9.97497 16.4961 9.72703 16.4961 9.33296V6.92014C16.4961 6.51628 16.6873 6.13654 17.0111 5.89726L23.9811 0.746861Z" fill="#00CB8E"/>
</mask>
<g mask="url(#mask0_750_4648)">
<g filter="url(#filter0_f_750_4648)">
<path d="M31.3106 3.40395L29.0039 -1.07666L22.2484 2.43436L24.5551 6.91497L31.3106 3.40395Z" fill="#009367"/>
</g>
</g>
<path d="M23.9811 0.746862C24.5825 0.302506 25.4015 0.302477 26.0029 0.746784C27.3162 1.71714 28.128 2.31675 28.6618 2.71093C29.321 3.19994 29.432 3.27715 29.765 3.52594C29.2783 3.22568 28.4927 3.39703 27.8951 3.73185C26.9302 4.27233 25.0779 5.34489 24.0839 5.90893L17.2604 9.78116C16.9188 9.97495 16.4961 9.72706 16.4961 9.33293V6.92012C16.4961 6.51626 16.6873 6.13651 17.0111 5.89724L23.9811 0.746862Z" fill="url(#paint0_linear_750_4648)"/>
</g>
<g clip-path="url(#clip1_750_4648)">
<path d="M48.2172 19.7844V15.6598C48.2172 15.1987 48.1078 14.8409 47.8891 14.5867C47.6746 14.3281 47.3765 14.1988 46.9947 14.1988C46.7502 14.1988 46.5379 14.257 46.3577 14.3733C46.1775 14.4854 46.036 14.6448 45.933 14.8517C45.8344 15.0543 45.7851 15.2892 45.7851 15.5564L45.0516 15.0651C45.0516 14.5867 45.1631 14.1643 45.3862 13.798C45.6135 13.4316 45.9159 13.1472 46.2933 12.9446C46.6751 12.7377 47.0976 12.6343 47.5609 12.6343C48.3545 12.6343 48.9529 12.8713 49.3561 13.3454C49.7636 13.8152 49.9673 14.4315 49.9673 15.1944V19.7844H48.2172ZM39.8398 19.7844V12.8024H41.3841V15.1168H41.6028V19.7844H39.8398ZM44.0349 19.7844V15.6598C44.0349 15.1987 43.9256 14.8409 43.7068 14.5867C43.4923 14.3281 43.1942 14.1988 42.8124 14.1988C42.4479 14.1988 42.154 14.3259 41.9309 14.5802C41.7122 14.8302 41.6028 15.1556 41.6028 15.5564L40.8693 15.0392C40.8693 14.5823 40.983 14.1729 41.2103 13.8109C41.4377 13.4489 41.7422 13.1622 42.124 12.9511C42.5101 12.7399 42.9411 12.6343 43.4172 12.6343C43.962 12.6343 44.4082 12.7506 44.7556 12.9834C45.1073 13.2161 45.3668 13.5264 45.5341 13.9143C45.7014 14.3022 45.7851 14.7289 45.7851 15.1944V19.7844H44.0349Z" fill="#141623"/>
<path d="M34.7738 19.9912C34.2291 19.9912 33.7851 19.8985 33.4419 19.7132C33.0988 19.5278 32.8307 19.2929 32.6377 19.0085C32.449 18.724 32.3138 18.4288 32.2323 18.1228C32.1508 17.8125 32.1015 17.5302 32.0843 17.2759C32.0672 17.0217 32.0586 16.8363 32.0586 16.72V12.8022H33.8344V16.0993C33.8344 16.2588 33.843 16.4635 33.8602 16.7135C33.8774 16.9591 33.931 17.207 34.0211 17.457C34.1111 17.7069 34.257 17.9159 34.4586 18.084C34.6644 18.2521 34.954 18.3362 35.3272 18.3362C35.4773 18.3362 35.6382 18.3125 35.8098 18.265C35.9814 18.2176 36.1422 18.1271 36.2923 17.9935C36.4424 17.8556 36.5647 17.6552 36.6591 17.3923C36.7578 17.125 36.8071 16.776 36.8071 16.345L37.8108 16.8234C37.8108 17.3751 37.6993 17.8923 37.4762 18.3749C37.2532 18.8576 36.9164 19.2477 36.4661 19.5451C36.02 19.8425 35.4559 19.9912 34.7738 19.9912ZM37.0259 19.7843V17.4699H36.8071V12.8022H38.5701V19.7843H37.0259Z" fill="#141623"/>
<path d="M27.9715 19.9784C27.2595 19.9784 26.6311 19.8253 26.0863 19.5193C25.5458 19.209 25.1212 18.7845 24.8123 18.2458C24.5078 17.7027 24.3555 17.0821 24.3555 16.3839C24.3555 15.621 24.5056 14.9573 24.8059 14.3927C25.1061 13.8281 25.5201 13.3906 26.0477 13.0803C26.5753 12.7657 27.1823 12.6084 27.8686 12.6084C28.5978 12.6084 29.2176 12.7808 29.7281 13.1256C30.2385 13.4704 30.616 13.9552 30.8605 14.5802C31.105 15.2051 31.1908 15.94 31.1179 16.7847H29.3871V16.1382C29.3871 15.4271 29.2734 14.9163 29.0461 14.606C28.823 14.2914 28.4562 14.1341 27.9458 14.1341C27.3496 14.1341 26.9099 14.3173 26.6268 14.6836C26.348 15.0456 26.2085 15.5822 26.2085 16.2934C26.2085 16.9442 26.348 17.4484 26.6268 17.8062C26.9099 18.1596 27.3238 18.3363 27.8686 18.3363C28.2118 18.3363 28.5056 18.2608 28.7501 18.11C28.9946 17.9592 29.1812 17.7415 29.3099 17.4571L31.06 17.9613C30.7983 18.5992 30.3844 19.0948 29.8182 19.4482C29.2562 19.8016 28.6407 19.9784 27.9715 19.9784ZM25.6681 16.7847V15.4788H30.275V16.7847H25.6681Z" fill="#141623"/>
<path d="M23.9727 19.7843C23.4923 19.8748 23.0205 19.9136 22.5572 19.9007C22.0982 19.8921 21.6864 19.8123 21.3218 19.6615C20.9615 19.5063 20.687 19.2585 20.4982 18.918C20.3267 18.5991 20.2366 18.2758 20.228 17.9483C20.2194 17.6164 20.2152 17.2414 20.2152 16.8234V10.8628H21.9653V16.72C21.9653 16.9915 21.9674 17.2371 21.9717 17.4569C21.9803 17.6724 22.0253 17.8448 22.1068 17.9741C22.2613 18.2198 22.5079 18.3534 22.8468 18.375C23.1856 18.3965 23.561 18.3793 23.9727 18.3232V19.7843ZM19.0312 14.1599V12.8022H23.9727V14.1599H19.0312Z" fill="#141623"/>
<path d="M14.4843 19.9784C13.9867 19.9784 13.5642 19.8835 13.2168 19.6939C12.8736 19.4999 12.612 19.2435 12.4318 18.9245C12.2559 18.6013 12.168 18.2458 12.168 17.8578C12.168 17.5346 12.2173 17.2394 12.316 16.9722C12.4146 16.705 12.5734 16.47 12.7921 16.2675C13.0152 16.0606 13.3133 15.8882 13.6865 15.7503C13.9439 15.6555 14.2505 15.5715 14.6066 15.4982C14.9626 15.4249 15.3658 15.356 15.8162 15.2913C16.2666 15.2224 16.7621 15.1469 17.3025 15.065L16.672 15.4141C16.672 15.0004 16.5733 14.6965 16.376 14.5026C16.1787 14.3087 15.8484 14.2117 15.3851 14.2117C15.1278 14.2117 14.8597 14.2742 14.5808 14.3992C14.302 14.5241 14.1068 14.7461 13.9953 15.065L12.4125 14.5608C12.5883 13.9833 12.9186 13.5135 13.4034 13.1514C13.8881 12.7894 14.5486 12.6084 15.3851 12.6084C15.9985 12.6084 16.5433 12.7032 17.0194 12.8929C17.4955 13.0825 17.8559 13.41 18.1004 13.8755C18.2376 14.1341 18.3191 14.3927 18.3449 14.6513C18.3706 14.9099 18.3835 15.1986 18.3835 15.5176V19.7844H16.8522V18.3492L17.0709 18.6465C16.732 19.1164 16.3653 19.4568 15.9706 19.668C15.5803 19.8749 15.0848 19.9784 14.4843 19.9784ZM14.8575 18.5949C15.1792 18.5949 15.4495 18.5388 15.6682 18.4267C15.8913 18.3104 16.0671 18.179 16.1958 18.0324C16.3288 17.8859 16.4189 17.763 16.4661 17.6639C16.5562 17.4743 16.6076 17.2545 16.6205 17.0045C16.6377 16.7502 16.6463 16.539 16.6463 16.3709L17.161 16.5003C16.642 16.5865 16.2216 16.6597 15.8999 16.7201C15.5782 16.7761 15.3186 16.8278 15.1213 16.8752C14.924 16.9226 14.7503 16.9743 14.6002 17.0304C14.4285 17.0993 14.2891 17.1747 14.1819 17.2566C14.079 17.3342 14.0018 17.4204 13.9503 17.5152C13.9031 17.61 13.8795 17.7156 13.8795 17.832C13.8795 17.9914 13.9181 18.1294 13.9953 18.2458C14.0768 18.3578 14.1905 18.444 14.3363 18.5043C14.4822 18.5647 14.6559 18.5949 14.8575 18.5949Z" fill="#141623"/>
<path d="M11.3321 19.7843C10.8517 19.8748 10.3799 19.9136 9.91657 19.9007C9.45761 19.8921 9.0458 19.8123 8.68122 19.6615C8.32091 19.5063 8.04636 19.2585 7.85761 18.918C7.68606 18.5991 7.59597 18.2758 7.5874 17.9483C7.57882 17.6164 7.57453 17.2414 7.57453 16.8234V10.8628H9.32465V16.72C9.32465 16.9915 9.32676 17.2371 9.3311 17.4569C9.33968 17.6724 9.38472 17.8448 9.46618 17.9741C9.62064 18.2198 9.86724 18.3534 10.2062 18.375C10.545 18.3965 10.9204 18.3793 11.3321 18.3232V19.7843ZM6.39062 14.1599V12.8022H11.3321V14.1599H6.39062Z" fill="#141623"/>
<path d="M3.10131 19.9784C2.22625 19.9784 1.51849 19.7801 0.978007 19.3836C0.441819 18.9827 0.115817 18.4181 0 17.6898L1.78872 17.4182C1.86164 17.7458 2.0225 18.0022 2.27129 18.1876C2.52437 18.3729 2.84394 18.4656 3.22999 18.4656C3.54742 18.4656 3.79192 18.4052 3.9635 18.2845C4.13508 18.1596 4.22087 17.9871 4.22087 17.7673C4.22087 17.6294 4.18656 17.5196 4.11792 17.4377C4.04929 17.3514 3.89487 17.2674 3.65465 17.1855C3.41874 17.1036 3.04984 16.9959 2.54797 16.8623C1.98175 16.7157 1.52921 16.5519 1.19034 16.3709C0.851464 16.1899 0.606965 15.9744 0.456832 15.7245C0.306699 15.4702 0.231633 15.1642 0.231633 14.8064C0.231633 14.3582 0.345305 13.9703 0.57265 13.6428C0.799994 13.3109 1.11956 13.0566 1.53135 12.8799C1.94743 12.6989 2.43644 12.6084 2.99836 12.6084C3.54313 12.6084 4.0257 12.6924 4.44607 12.8605C4.86644 13.0286 5.20531 13.2678 5.46268 13.5781C5.72433 13.8884 5.88519 14.2548 5.94527 14.6771L4.15653 15.0004C4.1265 14.7418 4.01498 14.5371 3.82195 14.3862C3.62892 14.2354 3.36726 14.147 3.03697 14.1212C2.71526 14.0996 2.45574 14.1427 2.25842 14.2505C2.0654 14.3582 1.96888 14.5134 1.96888 14.7159C1.96888 14.8366 2.00963 14.9379 2.09114 15.0198C2.17692 15.1017 2.35065 15.1857 2.61231 15.2719C2.87826 15.3581 3.28147 15.4702 3.82195 15.6081C4.34955 15.746 4.77207 15.9076 5.0895 16.093C5.41121 16.274 5.64499 16.4938 5.79081 16.7524C5.93669 17.0067 6.00958 17.3148 6.00958 17.6769C6.00958 18.3923 5.75223 18.9547 5.23748 19.3641C4.72274 19.7736 4.01068 19.9784 3.10131 19.9784Z" fill="#141623"/>
</g>
<defs>
<filter id="filter0_f_750_4648" x="-25.8097" y="-49.1349" width="105.178" height="104.108" filterUnits="userSpaceOnUse" color-interpolation-filters="sRGB">
<feFlood flood-opacity="0" result="BackgroundImageFix"/>
<feBlend mode="normal" in="SourceGraphic" in2="BackgroundImageFix" result="shape"/>
<feGaussianBlur stdDeviation="24.0291" result="effect1_foregroundBlur_750_4648"/>
</filter>
<linearGradient id="paint0_linear_750_4648" x1="27.1181" y1="1.62995" x2="16.468" y2="8.22489" gradientUnits="userSpaceOnUse">
<stop stop-color="#00BF86"/>
<stop offset="1" stop-color="#00DF9C"/>
</linearGradient>
<clipPath id="clip0_750_4648">
<rect width="17.0379" height="10.2378" fill="white" transform="translate(16.4805)"/>
</clipPath>
<clipPath id="clip1_750_4648">
<rect width="50" height="9.17482" fill="white" transform="translate(0 10.8252)"/>
</clipPath>
</defs>
</svg>
