<svg width="19" height="19" viewBox="0 0 19 19" fill="none" xmlns="http://www.w3.org/2000/svg">
<path d="M11.9625 14.7115C11.4213 14.7115 10.8567 14.6086 10.2686 14.403C9.68416 14.1973 9.08887 13.8943 8.48275 13.4938C7.88024 13.0933 7.27953 12.5973 6.68062 12.0056C6.08172 11.4103 5.58023 10.8096 5.17615 10.2034C4.77207 9.59372 4.4672 8.99662 4.26156 8.41215C4.05952 7.82767 3.9585 7.26846 3.9585 6.73449C3.9585 6.24382 4.03065 5.82892 4.17497 5.48978C4.32289 5.14704 4.5574 4.82774 4.8785 4.5319C4.89654 4.51747 4.91638 4.50123 4.93803 4.48319C4.96328 4.46154 4.98674 4.4417 5.00838 4.42366C5.36556 4.10617 5.72093 3.95103 6.0745 3.95825C6.28015 3.96186 6.47498 4.01958 6.65898 4.13143C6.84658 4.24327 7.02337 4.41645 7.18933 4.65096L8.33122 6.28532C8.508 6.53787 8.5964 6.80304 8.5964 7.08085C8.5964 7.35504 8.48275 7.60579 8.25545 7.83309L7.85498 8.23356C7.78643 8.30571 7.74855 8.37607 7.74133 8.44462C7.73773 8.50956 7.76118 8.58172 7.81169 8.66109C7.88384 8.77293 7.97224 8.8938 8.07686 9.02368C8.1851 9.15356 8.30055 9.28705 8.42322 9.42415C8.54949 9.55764 8.67757 9.68933 8.80745 9.81921C8.93373 9.94548 9.07263 10.079 9.22416 10.2197C9.3793 10.3568 9.52903 10.4849 9.67334 10.6039C9.81765 10.723 9.93852 10.815 10.0359 10.8799C10.1153 10.9376 10.1893 10.9647 10.2578 10.9611C10.3264 10.9539 10.3949 10.9142 10.4635 10.842L10.8639 10.4416C11.0948 10.2143 11.3474 10.1024 11.6216 10.106C11.8958 10.106 12.1592 10.1926 12.4117 10.3658L14.0244 11.486C14.2661 11.652 14.4429 11.8288 14.5548 12.0164C14.6702 12.2004 14.7279 12.3934 14.7279 12.5955C14.7279 12.765 14.6883 12.9418 14.6089 13.1258C14.5295 13.3098 14.4105 13.492 14.2517 13.6724C14.2301 13.694 14.2102 13.7157 14.1922 13.7373C14.1741 13.759 14.1543 13.7806 14.1327 13.8023C13.844 14.1198 13.5283 14.3507 13.1856 14.495C12.8464 14.6393 12.4388 14.7115 11.9625 14.7115ZM11.9625 13.8023C12.2548 13.7987 12.5254 13.7446 12.7743 13.6399C13.0232 13.5389 13.2361 13.3856 13.4129 13.1799C13.4345 13.1619 13.4526 13.1438 13.467 13.1258C13.4814 13.1078 13.4959 13.0879 13.5103 13.0663C13.6438 12.9111 13.7105 12.756 13.7105 12.6009C13.7105 12.5215 13.6925 12.4475 13.6564 12.379C13.6239 12.3104 13.5662 12.2491 13.4832 12.195L11.9842 11.1992C11.8904 11.1379 11.793 11.109 11.6919 11.1126C11.5909 11.1126 11.4953 11.1595 11.4051 11.2533L10.9722 11.6917C10.7737 11.8937 10.5645 11.9947 10.3444 11.9947C10.1279 11.9947 9.92769 11.9298 9.74369 11.7999C9.6102 11.7061 9.45326 11.5835 9.27287 11.4319C9.09248 11.2768 8.90667 11.1126 8.71545 10.9394C8.52785 10.7627 8.35467 10.5949 8.19592 10.4362C7.96502 10.2125 7.7269 9.96172 7.48157 9.68392C7.23984 9.40611 7.04502 9.16258 6.89709 8.95332C6.7636 8.77293 6.69686 8.5727 6.69686 8.35262C6.70047 8.13254 6.80509 7.92328 7.01074 7.72485L7.44369 7.29191C7.53749 7.20171 7.5862 7.10791 7.5898 7.01049C7.59341 6.90947 7.56274 6.81026 7.4978 6.71285L6.48039 5.19213C6.37937 5.04061 6.24407 4.96484 6.0745 4.96484C5.99874 4.96484 5.92117 4.98288 5.8418 5.01896C5.76242 5.05143 5.68486 5.10013 5.60909 5.16508C5.59105 5.18312 5.57121 5.19935 5.54956 5.21378C5.53152 5.22461 5.51348 5.24084 5.49544 5.26249C5.28979 5.43927 5.13466 5.65214 5.03003 5.90108C4.9254 6.14641 4.87128 6.4152 4.86768 6.70743C4.86046 7.16563 4.95968 7.65991 5.16532 8.19026C5.37458 8.72062 5.66862 9.25819 6.04744 9.80297C6.42627 10.3442 6.86643 10.8637 7.36792 11.3616C7.8658 11.8522 8.37992 12.2834 8.91028 12.655C9.44424 13.023 9.97099 13.308 10.4905 13.51C11.0137 13.7157 11.5043 13.8131 11.9625 13.8023Z" fill="#141623"/>
</svg>
