<svg width="10" height="12" viewBox="0 0 10 12" fill="none" xmlns="http://www.w3.org/2000/svg">
<path d="M2.10196 11.8334C1.51783 11.8334 1.07702 11.6843 0.77951 11.3861C0.482005 11.088 0.333252 10.6479 0.333252 10.0659V1.93426C0.333252 1.35587 0.482005 0.917582 0.77951 0.619404C1.07702 0.317633 1.51783 0.166748 2.10196 0.166748H4.72509C4.95366 0.166748 5.15321 0.182914 5.32373 0.215247C5.49425 0.243987 5.65207 0.299671 5.7972 0.382298C5.94232 0.461334 6.09107 0.57809 6.24346 0.732568L9.09516 3.60478C9.25479 3.76285 9.37452 3.91553 9.45434 4.06282C9.53779 4.20652 9.59402 4.36639 9.62305 4.54242C9.65207 4.71486 9.66658 4.92682 9.66658 5.1783V10.0659C9.66658 10.6443 9.51783 11.0826 9.22033 11.3808C8.92282 11.6825 8.48201 11.8334 7.89788 11.8334H2.10196ZM2.18903 10.7718H7.8108C8.07566 10.7718 8.27339 10.7054 8.404 10.5724C8.53461 10.4395 8.59992 10.2491 8.59992 10.0012V5.32379H5.66659C5.27838 5.32379 4.98813 5.22859 4.79584 5.03819C4.60717 4.84778 4.51284 4.56038 4.51284 4.17599V1.22295H2.19448C1.92962 1.22295 1.73189 1.2912 1.60128 1.42772C1.47067 1.56423 1.40536 1.75643 1.40536 2.00432V10.0012C1.40536 10.2491 1.47067 10.4395 1.60128 10.5724C1.73189 10.7054 1.92781 10.7718 2.18903 10.7718ZM5.76999 4.39154H8.45298L5.45434 1.36844V4.0736C5.45434 4.18497 5.47792 4.2658 5.52509 4.31609C5.57588 4.36639 5.65752 4.39154 5.76999 4.39154Z" fill="#141623"/>
</svg>
